<?xml version="1.0" encoding="UTF-8" standalone="no"?>
<!-- Created with Inkscape (http://www.inkscape.org/) -->

<svg
   width="210mm"
   height="297mm"
   viewBox="0 0 210 297"
   version="1.1"
   id="svg5"
   inkscape:version="1.1.2 (0a00cf5339, 2022-02-04)"
   sodipodi:docname="luTj.svg"
   xmlns:inkscape="http://www.inkscape.org/namespaces/inkscape"
   xmlns:sodipodi="http://sodipodi.sourceforge.net/DTD/sodipodi-0.dtd"
   xmlns="http://www.w3.org/2000/svg"
   xmlns:svg="http://www.w3.org/2000/svg">
  <sodipodi:namedview
     id="namedview7"
     pagecolor="#ffffff"
     bordercolor="#666666"
     borderopacity="1.0"
     inkscape:pageshadow="2"
     inkscape:pageopacity="0.0"
     inkscape:pagecheckerboard="0"
     inkscape:document-units="mm"
     showgrid="false"
     inkscape:zoom="0.60756173"
     inkscape:cx="397.49047"
     inkscape:cy="562.0828"
     inkscape:window-width="1920"
     inkscape:window-height="1027"
     inkscape:window-x="0"
     inkscape:window-y="29"
     inkscape:window-maximized="1"
     inkscape:current-layer="layer1" />
  <defs
     id="defs2">
    <inkscape:path-effect
       effect="skeletal"
       id="path-effect1043"
       is_visible="true"
       lpeversion="1"
       pattern="m 19.73169,1.1183282 c 0,-2.7556603 2.236478,-4.9921382 4.992138,-4.9921382 2.755661,0 4.992138,2.2364779 4.992138,4.9921382 0,2.7556604 -2.236477,4.9921383 -4.992138,4.9921383 -2.75566,0 -4.992138,-2.2364779 -4.992138,-4.9921383 z"
       copytype="single_stretched"
       prop_scale="1"
       scale_y_rel="false"
       spacing="0"
       normal_offset="0"
       tang_offset="0"
       prop_units="false"
       vertical_pattern="false"
       hide_knot="false"
       fuse_tolerance="0" />
    <inkscape:path-effect
       effect="skeletal"
       id="path-effect1039"
       is_visible="true"
       lpeversion="1"
       pattern="M 0,4.9921382 C 0,2.2364779 2.2364779,0 4.9921382,0 c 2.7556604,0 4.9921383,2.2364779 4.9921383,4.9921382 0,2.7556604 -2.2364779,4.9921383 -4.9921383,4.9921383 C 2.2364779,9.9842765 0,7.7477986 0,4.9921382 Z"
       copytype="single_stretched"
       prop_scale="1"
       scale_y_rel="false"
       spacing="0"
       normal_offset="0"
       tang_offset="0"
       prop_units="false"
       vertical_pattern="false"
       hide_knot="false"
       fuse_tolerance="0" />
    <inkscape:path-effect
       effect="skeletal"
       id="path-effect1002"
       is_visible="true"
       lpeversion="1"
       pattern="M 0,4.9921382 C 0,2.2364779 2.2364779,0 4.9921382,0 c 2.7556604,0 4.9921383,2.2364779 4.9921383,4.9921382 0,2.7556604 -2.2364779,4.9921383 -4.9921383,4.9921383 C 2.2364779,9.9842765 0,7.7477986 0,4.9921382 Z"
       copytype="single_stretched"
       prop_scale="1"
       scale_y_rel="false"
       spacing="0"
       normal_offset="0"
       tang_offset="0"
       prop_units="false"
       vertical_pattern="false"
       hide_knot="false"
       fuse_tolerance="0" />
    <inkscape:path-effect
       effect="skeletal"
       id="path-effect965"
       is_visible="true"
       lpeversion="1"
       pattern="M 0,4.9921382 C 0,2.2364779 2.2364779,0 4.9921382,0 c 2.7556604,0 4.9921383,2.2364779 4.9921383,4.9921382 0,2.7556604 -2.2364779,4.9921383 -4.9921383,4.9921383 C 2.2364779,9.9842765 0,7.7477986 0,4.9921382 Z"
       copytype="single_stretched"
       prop_scale="1"
       scale_y_rel="false"
       spacing="0"
       normal_offset="0"
       tang_offset="0"
       prop_units="false"
       vertical_pattern="false"
       hide_knot="false"
       fuse_tolerance="0" />
    <inkscape:path-effect
       effect="skeletal"
       id="path-effect768"
       is_visible="true"
       lpeversion="1"
       pattern="M 0,4.9921382 C 0,2.2364779 2.2364779,0 4.9921382,0 c 2.7556604,0 4.9921383,2.2364779 4.9921383,4.9921382 0,2.7556604 -2.2364779,4.9921383 -4.9921383,4.9921383 C 2.2364779,9.9842765 0,7.7477986 0,4.9921382 Z"
       copytype="single_stretched"
       prop_scale="1"
       scale_y_rel="false"
       spacing="0"
       normal_offset="0"
       tang_offset="0"
       prop_units="false"
       vertical_pattern="false"
       hide_knot="false"
       fuse_tolerance="0" />
    <inkscape:path-effect
       effect="skeletal"
       id="path-effect571"
       is_visible="true"
       lpeversion="1"
       pattern="M 0,4.9921382 C 0,2.2364779 2.2364779,0 4.9921382,0 c 2.7556604,0 4.9921383,2.2364779 4.9921383,4.9921382 0,2.7556604 -2.2364779,4.9921383 -4.9921383,4.9921383 C 2.2364779,9.9842765 0,7.7477986 0,4.9921382 Z"
       copytype="single_stretched"
       prop_scale="1"
       scale_y_rel="false"
       spacing="0"
       normal_offset="0"
       tang_offset="0"
       prop_units="false"
       vertical_pattern="false"
       hide_knot="false"
       fuse_tolerance="0" />
    <inkscape:path-effect
       effect="skeletal"
       id="path-effect567"
       is_visible="true"
       lpeversion="1"
       pattern="M 0,4.9921382 C 0,2.2364779 2.2364779,0 4.9921382,0 c 2.7556604,0 4.9921383,2.2364779 4.9921383,4.9921382 0,2.7556604 -2.2364779,4.9921383 -4.9921383,4.9921383 C 2.2364779,9.9842765 0,7.7477986 0,4.9921382 Z"
       copytype="single_stretched"
       prop_scale="1"
       scale_y_rel="false"
       spacing="0"
       normal_offset="0"
       tang_offset="0"
       prop_units="false"
       vertical_pattern="false"
       hide_knot="false"
       fuse_tolerance="0" />
    <inkscape:path-effect
       effect="skeletal"
       id="path-effect370"
       is_visible="true"
       lpeversion="1"
       pattern="M 0,4.9921382 C 0,2.2364779 2.2364779,0 4.9921382,0 c 2.7556604,0 4.9921383,2.2364779 4.9921383,4.9921382 0,2.7556604 -2.2364779,4.9921383 -4.9921383,4.9921383 C 2.2364779,9.9842765 0,7.7477986 0,4.9921382 Z"
       copytype="single_stretched"
       prop_scale="1"
       scale_y_rel="false"
       spacing="0"
       normal_offset="0"
       tang_offset="0"
       prop_units="false"
       vertical_pattern="false"
       hide_knot="false"
       fuse_tolerance="0" />
    <inkscape:path-effect
       effect="skeletal"
       id="path-effect366"
       is_visible="true"
       lpeversion="1"
       pattern="M 0,4.9921382 C 0,2.2364779 2.2364779,0 4.9921382,0 c 2.7556604,0 4.9921383,2.2364779 4.9921383,4.9921382 0,2.7556604 -2.2364779,4.9921383 -4.9921383,4.9921383 C 2.2364779,9.9842765 0,7.7477986 0,4.9921382 Z"
       copytype="single_stretched"
       prop_scale="1"
       scale_y_rel="false"
       spacing="0"
       normal_offset="0"
       tang_offset="0"
       prop_units="false"
       vertical_pattern="false"
       hide_knot="false"
       fuse_tolerance="0" />
    <inkscape:path-effect
       effect="skeletal"
       id="path-effect362"
       is_visible="true"
       lpeversion="1"
       pattern="M 0,4.9921382 C 0,2.2364779 2.2364779,0 4.9921382,0 c 2.7556604,0 4.9921383,2.2364779 4.9921383,4.9921382 0,2.7556604 -2.2364779,4.9921383 -4.9921383,4.9921383 C 2.2364779,9.9842765 0,7.7477986 0,4.9921382 Z"
       copytype="single_stretched"
       prop_scale="1"
       scale_y_rel="false"
       spacing="0"
       normal_offset="0"
       tang_offset="0"
       prop_units="false"
       vertical_pattern="false"
       hide_knot="false"
       fuse_tolerance="0" />
    <inkscape:path-effect
       effect="skeletal"
       id="path-effect358"
       is_visible="true"
       lpeversion="1"
       pattern="M 0,4.9921382 C 0,2.2364779 2.2364779,0 4.9921382,0 c 2.7556604,0 4.9921383,2.2364779 4.9921383,4.9921382 0,2.7556604 -2.2364779,4.9921383 -4.9921383,4.9921383 C 2.2364779,9.9842765 0,7.7477986 0,4.9921382 Z"
       copytype="single_stretched"
       prop_scale="1"
       scale_y_rel="false"
       spacing="0"
       normal_offset="0"
       tang_offset="0"
       prop_units="false"
       vertical_pattern="false"
       hide_knot="false"
       fuse_tolerance="0" />
    <inkscape:path-effect
       effect="skeletal"
       id="path-effect354"
       is_visible="true"
       lpeversion="1"
       pattern="M 0,4.9921382 C 0,2.2364779 2.2364779,0 4.9921382,0 c 2.7556604,0 4.9921383,2.2364779 4.9921383,4.9921382 0,2.7556604 -2.2364779,4.9921383 -4.9921383,4.9921383 C 2.2364779,9.9842765 0,7.7477986 0,4.9921382 Z"
       copytype="single_stretched"
       prop_scale="1"
       scale_y_rel="false"
       spacing="0"
       normal_offset="0"
       tang_offset="0"
       prop_units="false"
       vertical_pattern="false"
       hide_knot="false"
       fuse_tolerance="0" />
    <inkscape:path-effect
       effect="skeletal"
       id="path-effect157"
       is_visible="true"
       lpeversion="1"
       pattern="M 0,4.9921382 C 0,2.2364779 2.2364779,0 4.9921382,0 c 2.7556604,0 4.9921383,2.2364779 4.9921383,4.9921382 0,2.7556604 -2.2364779,4.9921383 -4.9921383,4.9921383 C 2.2364779,9.9842765 0,7.7477986 0,4.9921382 Z"
       copytype="single_stretched"
       prop_scale="1"
       scale_y_rel="false"
       spacing="0"
       normal_offset="0"
       tang_offset="0"
       prop_units="false"
       vertical_pattern="false"
       hide_knot="false"
       fuse_tolerance="0" />
    <inkscape:path-effect
       effect="skeletal"
       id="path-effect153"
       is_visible="true"
       lpeversion="1"
       pattern="M 0,4.9921382 C 0,2.2364779 2.2364779,0 4.9921382,0 c 2.7556604,0 4.9921383,2.2364779 4.9921383,4.9921382 0,2.7556604 -2.2364779,4.9921383 -4.9921383,4.9921383 C 2.2364779,9.9842765 0,7.7477986 0,4.9921382 Z"
       copytype="single_stretched"
       prop_scale="1"
       scale_y_rel="false"
       spacing="0"
       normal_offset="0"
       tang_offset="0"
       prop_units="false"
       vertical_pattern="false"
       hide_knot="false"
       fuse_tolerance="0" />
  </defs>
  <g
     inkscape:label="Warstwa 1"
     inkscape:groupmode="layer"
     id="layer1">
    <path
       style="fill:#000000;stroke:none;stroke-width:0.264583px;stroke-linecap:butt;stroke-linejoin:miter;stroke-opacity:1"
       d="m 176.70183,150.81099 c 0.48844,0.0983 0.75742,4.13809 -3.0664,10.4722 -1.9459,3.25569 -4.67207,6.76517 -8.53215,10.56467 -6.09956,6.01833 -14.56667,12.45678 -25.73149,17.70281 -4.41236,2.08043 -9.33927,3.98292 -14.67905,5.31607 -4.40731,1.11169 -9.2952,1.84119 -14.42907,1.62009 -4.26738,-0.16413 -8.85003,-1.16711 -13.125956,-3.53023 -4.100088,-2.35257 -7.469854,-5.91654 -9.646072,-10.23281 -1.754304,-3.59984 -2.389685,-7.494 -2.134219,-11.21775 0.235628,-3.88719 1.186174,-7.63263 2.618853,-11.12002 2.460431,-6.33114 6.629781,-12.69848 13.013024,-17.15529 7.11016,-4.73884 15.52271,-6.88958 23.8582,-7.10413 2.96219,-0.41744 7.32973,-0.23751 11.90832,2.56525 2.54147,2.03468 4.25115,4.66676 5.08217,7.4967 0.23233,0.79115 0.39535,1.59573 0.48891,2.40457 0.44201,3.86499 -0.0997,7.44947 -1.04689,10.5492 -0.96543,3.35108 -2.32226,6.49536 -3.92297,9.40373 0,0 -1e-5,1e-5 -1e-5,1e-5 -1.28371,2.38773 -2.84287,4.81195 -4.85719,7.07807 -5.20108,5.81034 -12.46177,9.33657 -19.95087,9.95238 0,0 -2e-5,0 -2e-5,0 -1.57031,0.11006 -2.95896,-0.002 -4.14146,-0.21947 -1.50453,-0.23549 -3.05704,-0.6636 -4.60304,-1.33208 0,0 -1e-5,-1e-5 -1e-5,-1e-5 -1.46149,-0.54363 -3.0698,-1.64361 -4.546894,-3.41299 0,0 -1.9e-5,-3e-5 -1.9e-5,-3e-5 -1.50569,-2.12099 -1.987423,-4.5663 -1.447831,-6.94317 0,0 7e-6,-3e-5 7e-6,-3e-5 1.287949,-5.79033 4.350277,-11.30857 9.233387,-15.20377 5.11659,-4.01769 11.59562,-6.13136 18.0929,-5.51603 7.16688,0.9381 12.79794,5.46549 15.7458,11.02515 2.68388,5.05582 3.97156,9.71741 6.14645,13.08928 3.91414,6.0785 9.38208,10.14164 14.9747,11.13682 0.59602,0.13665 1.39765,0.16189 2.31114,0.21735 1.39871,0.0739 2.83526,0.10972 4.2052,0.1412 3.99044,0.0912 7.68052,0.14043 11.01836,0.24754 4.23672,0.13542 7.44641,0.30233 10.58409,0.67613 1.38803,0.16333 2.58274,0.34447 3.75776,0.64627 0.4368,0.10928 0.88209,0.24487 1.33232,0.44036 0.27344,0.0702 0.6802,0.32402 1.09282,0.77669 0.20388,0.14359 0.33939,0.57119 0.33915,1.20323 -0.19336,0.59087 -0.45571,0.89795 -0.71289,0.9717 -0.65748,0.29701 -1.16663,0.30442 -1.47769,0.2782 -1.83159,0.0281 -2.84586,-0.38388 -2.87018,-0.45896 -0.0919,-0.28352 1.04252,-0.75934 2.61079,-1.26908 0.33937,-0.12619 0.64521,-0.19815 0.6543,-0.30679 -0.08,-0.0362 -0.16602,0.10945 -0.32887,0.48468 0.034,0.39126 0.0265,0.58029 0.0667,0.52954 0.10476,0.0861 0.0567,0.16289 -0.15618,0.0653 -0.27517,-0.0532 -0.5802,-0.0687 -0.97586,-0.0944 -1.06571,-0.0591 -2.08338,-0.0239 -3.46991,0.0249 -3.32491,0.12604 -5.85724,0.3277 -10.35317,0.65355 -2.99677,0.21892 -7.26935,0.54535 -11.01214,0.76104 -1.38574,0.0802 -2.87286,0.15721 -4.38906,0.18999 -0.8698,0.0301 -1.9349,0.0513 -3.15924,-0.0906 -7.57255,-1.02186 -15.10695,-5.5994 -20.24028,-13.09241 -3.04546,-4.45829 -4.73545,-9.38033 -7.03076,-13.28675 -1.99934,-3.34607 -5.68552,-6.18885 -9.51255,-6.33276 -3.82121,-0.40037 -8.06149,1.3024 -11.62959,4.07216 -2.83384,2.13583 -4.62329,5.95071 -5.64781,10.14997 0,0 0,0 0,0 0.0659,-0.33052 0.0133,-0.52082 -0.20494,-0.95829 0,0 0,-1e-5 0,-1e-5 -0.1365,-0.0166 0.21876,0.0733 0.79915,0.41406 0,0 1e-5,0 1e-5,0 0.64562,0.28082 1.42987,0.46433 2.30481,0.60485 0.76842,0.091 1.37617,0.16076 1.78675,0.0951 0,0 1e-5,0 1e-5,0 4.92777,-0.48588 9.98478,-3.04823 13.44659,-6.91604 1.2846,-1.41941 2.38453,-3.22549 3.49553,-5.23769 0,0 1e-5,-1e-5 1e-5,-1e-5 1.28052,-2.38546 2.34733,-4.85969 3.05522,-7.38703 0.61746,-2.39672 1.05223,-4.64316 0.73658,-6.51208 -0.0537,-0.30556 -0.12311,-0.60985 -0.2077,-0.90372 -0.30273,-1.05165 -0.79653,-1.95886 -1.45272,-2.32231 -0.28062,-0.83706 -2.56162,-0.38788 -5.58556,-0.60397 -6.97533,0.30226 -13.65071,1.79791 -18.7406,5.26607 -4.31676,2.74141 -7.443654,7.62368 -9.699015,12.67977 -1.14022,2.7251 -1.927188,5.44577 -2.113352,8.08807 -0.144165,2.46297 0.08795,4.79947 1.000331,6.59942 1.340126,2.8039 3.431103,5.20898 5.911236,6.68709 2.62451,1.65379 5.93716,2.43365 9.24676,2.74564 4.04244,0.35554 8.20996,-0.1232 12.16957,-0.91115 4.78246,-0.96502 9.35731,-2.4858 13.55615,-4.18538 10.68438,-4.34429 18.99488,-9.74312 25.2908,-14.86299 3.98782,-3.25077 6.81225,-6.08383 9.07612,-8.82584 4.18094,-5.11609 5.2422,-8.6572 5.82071,-8.54083 z"
       id="path1041"
       inkscape:path-effect="#path-effect1043"
       inkscape:original-d="m 176.70183,150.81099 c -4.88453,24.28263 -70.09211,60.37544 -85.140767,29.90313 -5.287097,-10.70594 3.365686,-27.51768 12.154847,-33.43016 5.93057,-3.9895 14.19916,-5.94545 21.2994,-6.1851 2.85662,-0.0964 6.30957,-0.24333 8.74694,1.58461 8.67492,6.50588 0.23628,23.86303 -4.94145,29.64756 -3.91421,4.37294 -10.9257,7.92197 -16.69873,8.43421 -3.06087,0.27159 -10.8164,-1.263 -9.71253,-6.03174 1.12826,-4.87409 3.48597,-9.58616 7.4406,-12.67687 9.03388,-7.06039 21.43263,-7.01882 27.49042,3.88485 2.39696,4.31439 3.80943,9.01946 6.58861,13.18803 4.13409,6.20084 10.16666,10.97479 17.60749,12.11461 4.70797,0.72119 32.116,-1.33289 33.90862,0.81786 0.86823,1.04168 -2.57221,0.85995 -3.86226,1.27791" />
  </g>
</svg>
