<?xml version="1.0" encoding="UTF-8" standalone="no"?>
<svg
   version="1.1"
   viewBox="-392 0 726 3000"
   id="svg1325"
   sodipodi:docname="u.lift.svg"
   inkscape:version="1.1.2 (0a00cf5339, 2022-02-04)"
   xmlns:inkscape="http://www.inkscape.org/namespaces/inkscape"
   xmlns:sodipodi="http://sodipodi.sourceforge.net/DTD/sodipodi-0.dtd"
   xmlns="http://www.w3.org/2000/svg"
   xmlns:svg="http://www.w3.org/2000/svg">
  <defs
     id="defs1329">
    <inkscape:path-effect
       effect="skeletal"
       id="path-effect151"
       is_visible="true"
       lpeversion="1"
       pattern="M 0,18.867925 C 0,8.4528302 8.4528302,0 18.867925,0 c 10.415094,0 18.867924,8.4528302 18.867924,18.867925 0,10.415094 -8.45283,18.867924 -18.867924,18.867924 C 8.4528302,37.735849 0,29.283019 0,18.867925 Z"
       copytype="single_stretched"
       prop_scale="1"
       scale_y_rel="false"
       spacing="0"
       normal_offset="0"
       tang_offset="0"
       prop_units="false"
       vertical_pattern="false"
       hide_knot="false"
       fuse_tolerance="0" />
    <inkscape:path-effect
       effect="skeletal"
       id="path-effect147"
       is_visible="true"
       lpeversion="1"
       pattern="M 0,18.867925 C 0,8.4528302 8.4528302,0 18.867925,0 c 10.415094,0 18.867924,8.4528302 18.867924,18.867925 0,10.415094 -8.45283,18.867924 -18.867924,18.867924 C 8.4528302,37.735849 0,29.283019 0,18.867925 Z"
       copytype="single_stretched"
       prop_scale="1"
       scale_y_rel="false"
       spacing="0"
       normal_offset="0"
       tang_offset="0"
       prop_units="false"
       vertical_pattern="false"
       hide_knot="false"
       fuse_tolerance="0" />
    <inkscape:path-effect
       effect="skeletal"
       id="path-effect143"
       is_visible="true"
       lpeversion="1"
       pattern="M 0,18.867925 C 0,8.4528302 8.4528302,0 18.867925,0 c 10.415094,0 18.867924,8.4528302 18.867924,18.867925 0,10.415094 -8.45283,18.867924 -18.867924,18.867924 C 8.4528302,37.735849 0,29.283019 0,18.867925 Z"
       copytype="single_stretched"
       prop_scale="1"
       scale_y_rel="false"
       spacing="0"
       normal_offset="0"
       tang_offset="0"
       prop_units="false"
       vertical_pattern="false"
       hide_knot="false"
       fuse_tolerance="0" />
  </defs>
  <sodipodi:namedview
     id="namedview1327"
     pagecolor="#ffffff"
     bordercolor="#666666"
     borderopacity="1.0"
     inkscape:pageshadow="2"
     inkscape:pageopacity="0.0"
     inkscape:pagecheckerboard="0"
     showgrid="false"
     inkscape:zoom="0.22733333"
     inkscape:cx="226.53959"
     inkscape:cy="1431.8182"
     inkscape:window-width="1920"
     inkscape:window-height="1027"
     inkscape:window-x="0"
     inkscape:window-y="29"
     inkscape:window-maximized="1"
     inkscape:current-layer="svg1325" />
  <path
     style="fill:#000000;stroke:none;stroke-width:1px;stroke-linecap:butt;stroke-linejoin:miter;stroke-opacity:1"
     d="m -226.84182,2216.4998 c -2.11974,-0.5625 -1.11922,-13.3114 3.93397,-36.0347 5.39777,-24.2728 14.03767,-53.7924 28.19291,-95.243 9.80431,-28.748 30.84519,-86.8365 43.28258,-127.116 14.73909,-47.6584 33.38787,-108.4363 54.657558,-165.2705 9.783113,-26.0737 16.599717,-51.4063 26.070111,-80.8828 6.394277,-20.0015 13.215811,-40.2092 17.714439,-59.9283 2.54874,-11.0698 5.084492,-22.2424 7.526382,-33.4304 -0.04922,0.2257 0.932107,-4.2888 0.882882,-4.0632 1.197997,-5.5401 2.351321,-11.0034 3.418297,-16.4244 0.389455,-1.9811 0.756778,-3.8883 1.079471,-5.7302 0.194792,-1.1614 0.347802,-1.9746 0.394697,-2.4511 -8.75e-4,-0.3244 -0.01039,0.1141 -0.06174,1.3146 7.9e-5,0 2.11e-4,0 2.11e-4,0 5.612118,0.4444 11.636661,2.6603 18.055869,6.6512 l 1e-6,0 c 7.27e-4,-10e-5 0.0015,-2e-4 0.0022,-3e-4 0.617304,-0.068 1.231225,-0.1312 1.836233,-0.1849 0.389947,-0.035 0.77485,-0.062 1.160845,-0.082 0.632581,-0.033 1.266023,-0.054 1.897255,-0.07 1.0609,-0.026 2.116107,-0.035 3.16352,-0.028 3.45834,0.024 6.8322402,0.2224 10.1144511,0.5926 0,0 8.765e-4,10e-5 8.765e-4,10e-5 0.1942222,-0.5622 0.2596299,-0.7255 0.1765243,-0.4978 -0.1711468,0.5521 -0.3666113,1.3586 -0.6288404,2.4038 0,0 -1.09e-5,10e-5 -1.09e-5,10e-5 -0.3751783,1.5256 -0.7381257,3.1116 -1.1035834,4.7513 0,0 -1.07e-5,0 -1.07e-5,0 -1.0734977,4.8204 -2.062818,9.7142 -3.0140436,14.6503 -2.8111779,14.6008 -5.1693709,29.1488 -7.1206749,43.5928 -2.386509,17.722 -4.145374,34.9983 -4.925278,52.0345 -0.391453,8.5569 -0.541115,16.9274 -0.318284,25.1481 0.216812,7.7049 0.704031,15.112 1.714009,22.2259 0.924556,6.3026 2.061587,12.0973 3.865535,17.2401 1.608983,4.2884 3.101325,7.838 5.0484169,10.0516 0.7844103,0.9504 1.5046157,1.7218 2.1689873,2.1957 0,0 1.19e-5,0 1.19e-5,0 0.6094681,0.4641 1.2742549,0.8456 1.9069993,1.0746 0.6748214,0.2863 1.622361,0.4401 2.7086649,0.5199 1.2968789,0.1028 2.90588593,-0.098 4.7330415,-0.4422 4.943833,-0.9755 10.0764932,-3.0821 15.2664072,-5.671 6.114699,-3.0925 12.058072,-7.032 17.855388,-11.3272 14.36832,-10.6525 27.39659,-23.6492 39.302504,-36.4892 14.620174,-15.8203 28.008304,-32.3853 39.933114,-47.856 13.62876,-17.6892 26.26522,-35.2673 37.1775,-50.7689 0,0 2e-5,0 2e-5,0 11.07536,-15.7339 23.13664,-33.3442 31.52293,-45.4889 1e-5,-10e-5 1e-5,-10e-5 2e-5,-10e-5 4.63131,-6.7071 8.71701,-12.5934 12.73585,-18.2697 3.7059,-5.2338 6.95368,-9.7359 10.19604,-14.0176 1.37739,-1.8193 2.69084,-3.5157 4.01288,-5.1541 1.07658,-1.3346 2.12635,-2.5979 3.24008,-3.8349 0.70508,-0.7976 1.54832,-1.71 2.6334,-2.6534 0.24721,-0.2602 0.80959,-0.6789 1.68191,-1.1879 0,0 4e-5,-10e-5 4e-5,-10e-5 0.27783,-0.1954 0.85218,-0.3953 1.7123,-0.5833 0,0 1.4e-4,0 1.4e-4,0 0.74656,-0.2002 1.75069,-0.044 2.99096,0.468 0,0 2.4e-4,10e-5 2.4e-4,10e-5 1.14794,0.7228 1.83838,1.4357 2.08572,2.121 0.33967,0.7954 0.49549,1.3562 0.48829,1.6827 0.0582,1.0188 -0.009,1.6842 -0.12619,2.0274 -0.36324,1.5698 -0.87106,2.8124 -1.3067,3.7591 -0.88189,2.013 -1.81912,3.8037 -2.61693,5.2197 -2.66213,4.735 -4.59378,6.9187 -5.55507,6.5627 -0.96129,-0.356 -0.90306,-3.2799 -0.143,-8.518 0.2353,-1.6189 0.53751,-3.4392 0.79545,-5.4213 0.1296,-1.0251 0.26176,-1.9975 0.18661,-2.6929 -0.0465,-0.2253 -0.0514,-0.1433 -0.074,0.2941 -0.0315,0.1524 0.086,0.5376 0.34518,1.1753 0.19,0.5731 0.79657,1.1827 1.83148,1.8482 0,0 2.2e-4,10e-5 2.2e-4,10e-5 1.12965,0.4561 2.00324,0.6047 2.62691,0.4256 0,0 1.2e-4,-10e-5 1.2e-4,-10e-5 0.69309,-0.1594 1.11045,-0.2873 1.23961,-0.3991 0,0 2e-5,-10e-5 2e-5,-10e-5 0.39889,-0.2427 0.56202,-0.2861 0.41572,-0.1556 -0.29244,0.4227 -0.62093,1.0838 -1.14684,1.9576 -0.70212,1.2365 -1.36524,2.4966 -2.13677,3.9623 -0.94305,1.7977 -1.84369,3.5553 -2.87998,5.5787 -1.85816,3.6286 -5.41661,10.6102 -7.81525,15.2517 -3.07154,5.9454 -6.62161,12.7283 -10.37208,19.7334 0,0 -1e-5,0 -1e-5,0 -7.52573,14.0571 -16.87672,30.924 -27.40332,48.696 0,0 -2e-5,0 -2e-5,0 -9.84739,16.6272 -21.39515,35.2141 -34.39658,54.2839 -11.32217,16.6156 -24.34149,34.4948 -39.129464,52.0196 -11.917592,14.1724 -25.742109,28.9942 -42.089457,42.1646 -6.631939,5.3446 -13.963328,10.5108 -22.101781,15.0275 -6.878198,3.8538 -14.66464,7.1943 -23.3383648,9.3613 -3.9635318,0.9922 -8.3265961,1.5704 -13.0232338,1.5603 -4.1131722,-0.018 -8.3858364,-0.6515 -12.6944334,-1.981 -4.049413,-1.289 -7.842418,-3.1585 -11.279876,-5.5541 0,0 -6.1e-5,0 -6.1e-5,0 -3.473116,-2.4498 -6.456974,-5.2178 -8.938547,-8.1851 -5.453111,-6.6632 -9.126495,-13.7123 -11.476816,-20.4646 -2.917637,-8.0238 -4.773809,-16.0211 -5.986083,-23.7779 -1.412387,-8.8241 -2.184802,-17.5986 -2.559639,-26.2892 -0.40957,-9.3042 -0.403309,-18.5854 -0.109597,-27.8595 0.582977,-18.4318 2.218572,-36.865 4.556543,-55.4396 1.900819,-15.1507 4.265415,-30.4331 7.142812,-45.7951 0.9702,-5.1844 2.011749,-10.4434 3.171727,-15.7497 0,0 1.2e-5,0 1.2e-5,0 0.393281,-1.8005 0.81276,-3.6559 1.27342,-5.5604 0,0 1.4e-5,-10e-5 1.4e-5,-10e-5 0.27186,-1.1465 0.620279,-2.5339 1.08838,-4.1486 0.09036,-0.3602 0.332502,-1.1114 0.745684,-2.2466 -8e-4,-2e-4 9.3e-5,-10e-5 9.3e-5,-10e-5 3.343246,0.2099 6.780337,0.2488 10.318589,0.1204 1.071616,-0.039 2.152463,-0.093 3.244642,-0.1612 0.649847,-0.041 1.3035,-0.087 1.964053,-0.1327 0.403061,-0.028 0.809457,-0.053 1.213055,-0.074 0.626185,-0.034 1.248865,-0.067 1.87356,-0.1066 7.36e-4,0 0.0015,-10e-5 0.0022,-10e-5 l 0,0 c 6.450809,4.112 12.4732729,6.4551 18.0849322,7.0247 0,0 1.317e-4,0 1.317e-4,0 -0.053265,1.747 -0.1288872,2.73 -0.193588,2.9485 -0.227855,1.8612 -0.4791718,3.3678 -0.6893019,4.5285 -0.389858,2.2442 -0.8014897,4.4121 -1.2121777,6.5111 -1.1266876,5.765 -2.3246985,11.4687 -3.5515955,17.1415 -0.2995313,1.385 -0.6002455,2.7656 -0.9012893,4.1414 -2.4960555,11.4128 -5.0888065,22.7326 -7.7017555,33.8944 -5.22581,22.1642 -12.463158,43.3078 -19.003825,62.9579 -9.366493,28.2694 -16.903294,54.4841 -27.859539,82.2766 -21.222745,53.567 -42.709332,116.5013 -58.939272,162.0817 -16.08678,45.1915 -37.2815,93.9442 -50.89957,125.7038 -20.85112,48.6839 -25.1029,59.2064 -37.96499,90.6358 -8.69988,21.2586 -13.75464,32.8634 -15.87438,32.3009 z"
     id="path141"
     inkscape:path-effect="#path-effect143"
     inkscape:original-d="m -226.84182,2216.4998 c 22.85826,-86.1401 61.73868,-168.3067 90.0742,-253.5171 18.24312,-54.8605 36.02323,-109.7219 56.79841,-163.6761 10.30981,-26.7751 18.07335,-54.323 26.96483,-81.5797 6.66993,-20.4465 13.49014,-40.472 18.35914,-61.4431 50.2143,-216.276 -61.05824,176.7063 40.16051,153.3495 100.56961,-23.2071 243.7484,-330.7427 209.40822,-238.0272" />
</svg>
